<svg width="128" height="128" viewBox="0 0 128 128" fill="none" xmlns="http://www.w3.org/2000/svg">
<g filter="url(#filter0_i_2_26)">
<circle cx="64" cy="64" r="64" fill="#F2F3F5"/>
</g>
<line x1="1" y1="-1" x2="44.2548" y2="-1" transform="matrix(0.70711 0.707104 -0.707111 0.707103 33.2308 62.5108)" stroke="#0A0A0A" stroke-width="2" stroke-linecap="round"/>
<line x1="94.7725" y1="62.9525" x2="65.7827" y2="92.8733" stroke="#0A0A0A" stroke-width="2" stroke-linecap="round"/>
<line x1="1" y1="-1" x2="44.2548" y2="-1" transform="matrix(0.70711 0.707104 -0.707111 0.707103 33.2308 35.4338)" stroke="#0A0A0A" stroke-width="2" stroke-linecap="round"/>
<line x1="94.7725" y1="35.8755" x2="65.7827" y2="65.7964" stroke="#0A0A0A" stroke-width="2" stroke-linecap="round"/>
<g clip-path="url(#clip0_2_26)">
<path d="M17.9649 35.9298C27.8867 35.9298 35.9298 27.8867 35.9298 17.9649C35.9298 8.04317 27.8867 0 17.9649 0C8.04317 0 0 8.04317 0 17.9649C0 27.8867 8.04317 35.9298 17.9649 35.9298Z" fill="#FF4500"/>
<path d="M29.9475 17.9649C29.929 17.4592 29.7647 16.9697 29.4742 16.5553C29.1838 16.141 28.7797 15.8195 28.3107 15.6296C27.8416 15.4397 27.3277 15.3895 26.8308 15.4851C26.3339 15.5807 25.8753 15.818 25.5102 16.1684C23.4665 14.7792 21.0642 14.0117 18.5937 13.9587L19.7614 8.35369L23.6059 9.16211C23.6516 9.58695 23.8472 9.98159 24.1577 10.2752C24.4681 10.5688 24.8731 10.7421 25.2998 10.7641C25.7265 10.786 26.1471 10.6552 26.486 10.395C26.825 10.1348 27.0601 9.76231 27.1491 9.34441C27.2382 8.9265 27.1754 8.49054 26.972 8.11477C26.7686 7.739 26.4379 7.44803 26.0393 7.2941C25.6407 7.14016 25.2003 7.13334 24.7971 7.27486C24.3939 7.41637 24.0544 7.69696 23.8394 8.06625L19.438 7.18597C19.3661 7.17018 19.2917 7.16883 19.2191 7.18201C19.1466 7.19518 19.0775 7.22261 19.0156 7.26272C18.9538 7.30282 18.9006 7.3548 18.859 7.41564C18.8174 7.47647 18.7883 7.54496 18.7733 7.61713L17.4439 13.851C14.943 13.8887 12.5077 14.6567 10.4376 16.0606C10.1607 15.8001 9.83038 15.6028 9.46963 15.4826C9.10888 15.3623 8.72629 15.322 8.34839 15.3643C7.97049 15.4066 7.60631 15.5306 7.28109 15.7276C6.95587 15.9247 6.67738 16.1901 6.46493 16.5055C6.25248 16.8209 6.11115 17.1787 6.05072 17.5541C5.9903 17.9295 6.01223 18.3136 6.11499 18.6797C6.21776 19.0458 6.3989 19.3852 6.64587 19.6744C6.89284 19.9635 7.19973 20.1955 7.54527 20.3543C7.52504 20.6173 7.52504 20.8816 7.54527 21.1447C7.54527 25.1688 12.2341 28.4385 18.0188 28.4385C23.8035 28.4385 28.4924 25.1688 28.4924 21.1447C28.5126 20.8816 28.5126 20.6173 28.4924 20.3543C28.9357 20.1339 29.3076 19.7926 29.5651 19.3698C29.8226 18.947 29.9552 18.4599 29.9475 17.9649V17.9649ZM11.9826 19.7614C11.9826 19.4061 12.088 19.0588 12.2854 18.7633C12.4828 18.4679 12.7633 18.2376 13.0916 18.1017C13.4199 17.9657 13.7811 17.9301 14.1296 17.9994C14.4781 18.0688 14.7982 18.2399 15.0494 18.4911C15.3006 18.7423 15.4717 19.0624 15.5411 19.4109C15.6104 19.7594 15.5748 20.1206 15.4388 20.4489C15.3029 20.7772 15.0726 21.0577 14.7772 21.2551C14.4817 21.4525 14.1344 21.5579 13.7791 21.5579C13.5432 21.5579 13.3096 21.5114 13.0916 21.4212C12.8736 21.3309 12.6756 21.1985 12.5088 21.0317C12.342 20.8649 12.2096 20.6669 12.1193 20.4489C12.0291 20.2309 11.9826 19.9973 11.9826 19.7614V19.7614ZM22.4202 24.7018C21.1456 25.6623 19.5775 26.1511 17.9829 26.0851C16.3883 26.1511 14.8201 25.6623 13.5455 24.7018C13.4692 24.6087 13.4301 24.4905 13.436 24.3702C13.4419 24.25 13.4924 24.1362 13.5775 24.0511C13.6627 23.9659 13.7764 23.9155 13.8967 23.9096C14.017 23.9037 14.1351 23.9427 14.2282 24.0191C15.3083 24.8113 16.6267 25.2107 17.9649 25.1509C19.3047 25.2237 20.6293 24.8372 21.7196 24.055C21.8149 23.9621 21.9432 23.9109 22.0762 23.9125C22.1421 23.9134 22.2072 23.9272 22.2678 23.9532C22.3283 23.9792 22.3832 24.0168 22.4292 24.064C22.4752 24.1112 22.5115 24.167 22.5359 24.2282C22.5604 24.2894 22.5725 24.3548 22.5717 24.4207C22.5708 24.4866 22.557 24.5517 22.531 24.6122C22.5051 24.6728 22.4674 24.7276 22.4202 24.7736V24.7018ZM22.0968 21.6298C21.7415 21.6298 21.3942 21.5244 21.0988 21.327C20.8033 21.1296 20.5731 20.849 20.4371 20.5208C20.3011 20.1925 20.2656 19.8313 20.3349 19.4828C20.4042 19.1343 20.5753 18.8142 20.8265 18.563C21.0778 18.3117 21.3979 18.1406 21.7464 18.0713C22.0949 18.002 22.4561 18.0376 22.7843 18.1735C23.1126 18.3095 23.3932 18.5398 23.5906 18.8352C23.788 19.1306 23.8933 19.478 23.8933 19.8333C23.9031 20.0767 23.8632 20.3195 23.7762 20.5471C23.6892 20.7746 23.5568 20.9821 23.387 21.1568C23.2173 21.3316 23.0138 21.47 22.789 21.5637C22.5641 21.6573 22.3225 21.7043 22.0789 21.7016L22.0968 21.6298Z" fill="white"/>
</g>
<defs>
<filter id="filter0_i_2_26" x="0" y="0" width="128" height="128" filterUnits="userSpaceOnUse" color-interpolation-filters="sRGB">
<feFlood flood-opacity="0" result="BackgroundImageFix"/>
<feBlend mode="normal" in="SourceGraphic" in2="BackgroundImageFix" result="shape"/>
<feColorMatrix in="SourceAlpha" type="matrix" values="0 0 0 0 0 0 0 0 0 0 0 0 0 0 0 0 0 0 127 0" result="hardAlpha"/>
<feOffset dy="-2"/>
<feComposite in2="hardAlpha" operator="arithmetic" k2="-1" k3="1"/>
<feColorMatrix type="matrix" values="0 0 0 0 0.901961 0 0 0 0 0.909804 0 0 0 0 0.917647 0 0 0 1 0"/>
<feBlend mode="normal" in2="shape" result="effect1_innerShadow_2_26"/>
</filter>
<clipPath id="clip0_2_26">
<rect width="35.9298" height="35.9298" fill="white"/>
</clipPath>
</defs>
</svg>
